<svg width="19" height="22" viewBox="0 0 19 22" fill="none" xmlns="http://www.w3.org/2000/svg">
<path d="M9.45882 14.8502C7.47882 14.8502 5.87882 13.2502 5.87882 11.2702C5.87882 9.29019 7.47882 7.69019 9.45882 7.69019C11.4388 7.69019 13.0388 9.29019 13.0388 11.2702C13.0388 13.2502 11.4388 14.8502 9.45882 14.8502Z" stroke="black" stroke-width="1.5" stroke-linecap="round" stroke-linejoin="round"/>
<path d="M1.18389 11.275C1.18389 14.805 3.26389 18.095 6.86389 20.385C8.27389 21.285 10.6439 21.285 12.0539 20.385C15.6539 18.095 17.7339 14.805 17.7339 11.275C17.7339 7.74499 15.6539 4.45499 12.0539 2.16499C10.6439 1.26499 8.27389 1.26499 6.86389 2.16499C3.26389 4.45499 1.18389 7.74499 1.18389 11.275Z" stroke="black" stroke-width="1.5" stroke-linecap="round" stroke-linejoin="round"/>
</svg>
