<svg width="22" height="22" viewBox="0 0 22 22" fill="none" xmlns="http://www.w3.org/2000/svg">
<path d="M6.07276 16.4825L8.37276 18.7825M18.9728 13.9225C17.9963 14.8966 16.7723 15.5855 15.433 15.9151C14.0937 16.2446 12.6898 16.2023 11.3728 15.7925L6.66276 20.4925C6.32276 20.8425 5.65276 21.0525 5.17276 20.9825L2.99276 20.6825C2.27276 20.5825 1.60276 19.9025 1.49276 19.1825L1.19276 17.0025C1.12276 16.5225 1.35276 15.8525 1.68276 15.5125L6.38276 10.8125C5.58276 8.2125 6.20276 5.2625 8.26276 3.2125C11.2128 0.2625 16.0028 0.2625 18.9628 3.2125C21.9228 6.1625 21.9228 10.9725 18.9728 13.9225Z" stroke="black" stroke-width="1.5" stroke-miterlimit="10" stroke-linecap="round" stroke-linejoin="round"/>
<path d="M13.6826 9.99243C14.0804 9.99243 14.462 9.8344 14.7433 9.55309C15.0246 9.27179 15.1826 8.89026 15.1826 8.49243C15.1826 8.09461 15.0246 7.71308 14.7433 7.43177C14.462 7.15047 14.0804 6.99243 13.6826 6.99243C13.2848 6.99243 12.9033 7.15047 12.622 7.43177C12.3407 7.71308 12.1826 8.09461 12.1826 8.49243C12.1826 8.89026 12.3407 9.27179 12.622 9.55309C12.9033 9.8344 13.2848 9.99243 13.6826 9.99243Z" stroke="black" stroke-width="1.5" stroke-linecap="round" stroke-linejoin="round"/>
</svg>
